# xmcd
#
# Track frame offsets:
#	150
#	17867
#	33550
#	49255
#	68275
#	83200
#	97925
#	114240
#	129437
#	149902
#	162780
#	181695
#	202480
#
# Disc length: 2936 seconds
#
# Revision: 1
# Processed by: cddbd v1.4PL0 Copyright (c) Steve Scherf et al.
# Submitted via: audiograbber 1.81.03
#
DISCID=b00b760d
DTITLE=Fair Play - Darf's ein bißchen mehr sein
DYEAR=1900
DGENRE=Country
TTITLE0=Darf's ein bißchen mehr sein
TTITLE1=Sommerfest in der Laubenkolonie
TTITLE2=Bands brauchen Fans
TTITLE3=Küß mich noch einmal, kleiner Vampir
TTITLE4=Ich möcht' den Kopf verlier'n
TTITLE5=Hau rein
TTITLE6=Immer mit der Ruhe
TTITLE7=Reisefieber
TTITLE8=Musiker im Paradies
TTITLE9=Lange Finger
TTITLE10=Sterne klau'n
TTITLE11=Gelber Wind
TTITLE12=Soviel Blut ist keine Fahne wert (Dixie)
EXTD=
EXTT0=
EXTT1=
EXTT2=
EXTT3=
EXTT4=
EXTT5=
EXTT6=
EXTT7=
EXTT8=
EXTT9=
EXTT10=
EXTT11=
EXTT12=
PLAYORDER=
